<svg width="1338" height="814" viewBox="0 0 1338 814" fill="none" xmlns="http://www.w3.org/2000/svg">
<g clip-path="url(#clip0_908_312)">
<rect width="1338" height="814" fill="url(#paint0_linear_908_312)"/>
<path d="M151.188 786.253L149.735 786.487C147.72 786.806 145.703 787.101 143.683 787.371L142.562 778.943C144.515 778.686 146.463 778.402 148.407 778.094L149.804 777.869L151.188 786.253ZM166.054 783.34C163.586 783.902 161.116 784.427 158.639 784.912L157.01 776.571C159.4 776.102 161.787 775.595 164.166 775.055L166.054 783.34ZM180.713 779.547C178.29 780.248 175.855 780.921 173.415 781.553L171.282 773.324C173.645 772.71 176.001 772.065 178.347 771.38L180.713 779.547ZM195.133 774.886C192.752 775.734 190.362 776.544 187.957 777.321L185.349 769.23C187.675 768.48 189.989 767.693 192.292 766.876L195.133 774.886ZM209.261 769.408C206.933 770.389 204.59 771.337 202.235 772.25L199.163 764.326C201.44 763.444 203.705 762.527 205.958 761.577L209.261 769.408ZM223.054 763.117C220.782 764.232 218.499 765.315 216.197 766.361L212.68 758.627C214.904 757.611 217.113 756.564 219.305 755.485L223.054 763.117ZM236.467 756.041C234.267 757.285 232.048 758.496 229.81 759.678L225.849 752.156C228.015 751.016 230.163 749.842 232.29 748.64L236.467 756.041ZM249.455 748.204C247.328 749.574 245.184 750.913 243.016 752.221L238.633 744.941C240.728 743.675 242.805 742.379 244.86 741.058L249.455 748.204ZM261.973 739.613C259.93 741.107 257.862 742.569 255.775 744.005L250.975 736.992C252.991 735.609 254.986 734.193 256.957 732.748L261.973 739.613ZM273.961 730.287C272.01 731.901 270.035 733.487 268.034 735.043L262.826 728.327C264.759 726.826 266.666 725.295 268.549 723.737L273.961 730.287ZM248.532 528.661L240.43 531.201C239.632 528.653 238.98 526.065 238.485 523.501L246.824 521.893C247.256 524.145 247.833 526.421 248.532 528.661ZM245.849 508.073C245.726 510.352 245.748 512.685 245.909 515.008L237.441 515.6C237.252 512.933 237.228 510.247 237.369 507.617L245.849 508.073ZM254.084 541.578L246.65 545.68C245.37 543.361 244.203 540.981 243.182 538.613L250.978 535.244C251.892 537.364 252.936 539.493 254.084 541.578ZM248.35 494.526C247.644 496.703 247.073 498.948 246.657 501.213L238.307 499.669C238.793 497.043 239.454 494.423 240.274 491.897L248.35 494.526ZM285.366 720.241C283.517 721.974 281.644 723.678 279.741 725.355L274.128 718.972C275.967 717.355 277.776 715.712 279.558 714.039L285.366 720.241ZM261.982 553.379L255.33 558.659C253.698 556.598 252.15 554.48 250.73 552.364L257.78 547.625C259.075 549.555 260.49 551.493 261.982 553.379ZM254.298 482.145C253.042 484.043 251.903 486.059 250.909 488.126L243.255 484.445C244.416 482.027 245.75 479.674 247.217 477.453L254.298 482.145ZM271.638 564.179L265.553 570.104C263.803 568.302 262.067 566.447 260.35 564.549L266.643 558.848C268.291 560.669 269.957 562.447 271.638 564.179ZM296.122 709.506C294.385 711.346 292.623 713.166 290.83 714.955L284.832 708.939C286.564 707.209 288.266 705.454 289.942 703.674L296.122 709.506ZM263.358 471.94C261.632 473.383 259.991 474.988 258.47 476.701L252.118 471.064C253.91 469.034 255.858 467.138 257.904 465.421L263.358 471.94ZM282.189 574.296L276.536 580.639C274.656 578.962 272.795 577.239 270.949 575.471L276.822 569.332C278.594 571.031 280.383 572.683 282.189 574.296ZM306.175 698.078C304.566 700.036 302.92 701.967 301.244 703.873L294.872 698.252C296.486 696.419 298.07 694.559 299.618 692.674L306.175 698.078ZM293.443 583.586L288.291 590.341C286.289 588.811 284.3 587.231 282.327 585.605L287.726 579.047C289.616 580.606 291.524 582.12 293.443 583.586ZM274.922 465.007C272.869 465.813 270.834 466.817 268.874 467.991L264.506 460.705C266.869 459.285 269.329 458.07 271.82 457.093L274.922 465.007ZM315.438 686.014C313.965 688.075 312.454 690.112 310.906 692.125L304.177 686.941C305.663 685.006 307.116 683.044 308.535 681.062L315.438 686.014ZM305.372 591.97L300.765 599.111C298.644 597.739 296.538 596.319 294.446 594.851L299.32 587.891C301.323 589.299 303.34 590.658 305.372 591.97ZM287.906 453.967L287.933 462.466C286.164 462.472 284.379 462.617 282.63 462.894C282.192 462.964 281.762 463.041 281.332 463.125L279.691 454.789C280.225 454.682 280.758 454.588 281.295 454.503C283.472 454.152 285.698 453.975 287.906 453.967ZM323.847 673.331C322.521 675.493 321.156 677.63 319.755 679.743L312.682 675.042C314.029 673.011 315.34 670.958 316.616 668.88L323.847 673.331ZM317.916 599.372L313.909 606.866C311.679 605.669 309.463 604.42 307.261 603.119L311.572 595.801C313.676 597.043 315.79 598.233 317.916 599.372ZM331.329 660.079C330.164 662.333 328.954 664.564 327.709 666.772L320.316 662.588C321.515 660.469 322.669 658.328 323.792 656.168L331.329 660.079ZM304.03 457.053L300.909 464.954C298.82 464.128 296.673 463.498 294.526 463.086L296.128 454.74C298.794 455.252 301.452 456.033 304.03 457.053ZM331.025 605.738L327.636 613.533C325.314 612.523 323.003 611.455 320.702 610.338L324.408 602.693C326.604 603.757 328.809 604.773 331.025 605.738ZM337.81 646.329C336.816 648.662 335.781 650.974 334.702 653.265L327.021 649.637C328.056 647.442 329.051 645.223 330.003 642.99L337.81 646.329ZM343.24 632.104C342.425 634.518 341.562 636.908 340.657 639.28L332.726 636.24C333.593 633.974 334.418 631.683 335.196 629.375L343.24 632.104ZM317.89 465.45L312.428 471.956C310.65 470.459 308.794 469.115 306.908 467.96L311.339 460.712C313.585 462.09 315.789 463.682 317.89 465.45ZM347.558 617.483C346.93 619.952 346.26 622.401 345.541 624.834L337.4 622.424C337.836 620.933 338.259 619.438 338.663 617.932C337.336 617.451 336.009 616.952 334.685 616.435L337.759 608.517C340.028 609.399 342.309 610.231 344.597 611.011L342.807 616.274L347.558 617.483ZM328.674 477.12L321.833 482.159C320.417 480.228 318.928 478.408 317.405 476.746L323.658 470.998C325.39 472.888 327.075 474.948 328.674 477.12ZM350.715 602.556C350.286 605.07 349.809 607.569 349.285 610.051L340.979 608.284C341.48 605.916 341.936 603.529 342.345 601.123L350.715 602.556ZM336.762 490.489L329.173 494.294C328.083 492.118 326.929 490.015 325.746 488.048L333.013 483.659C334.313 485.818 335.575 488.114 336.762 490.489ZM352.683 587.43C352.452 589.974 352.173 592.499 351.846 595.014L343.428 593.911C343.74 591.512 344.007 589.095 344.223 586.663L352.683 587.43ZM358.589 615.17L356.499 623.407C354.038 622.782 351.585 622.11 349.136 621.383L351.549 613.232C353.89 613.924 356.234 614.572 358.589 615.17ZM342.766 504.707L334.763 507.548C333.945 505.236 333.071 502.971 332.162 500.811L339.99 497.522C340.96 499.829 341.893 502.244 342.766 504.707ZM353.462 572.2C353.43 574.754 353.352 577.297 353.221 579.827L344.743 579.388C344.864 576.972 344.944 574.542 344.971 572.1L353.462 572.2ZM353.063 556.964C353.228 559.519 353.34 562.058 353.406 564.583L344.921 564.799C344.857 562.384 344.746 559.953 344.588 557.509L353.063 556.964ZM347.177 519.376L338.942 521.456C338.333 519.035 337.689 516.697 337.014 514.442L345.147 512.002C345.857 514.377 346.536 516.834 347.177 519.376ZM351.523 541.804C351.876 544.338 352.177 546.862 352.434 549.373L343.987 550.231C343.743 547.823 343.452 545.404 343.116 542.98L351.523 541.804ZM350.342 534.285L341.981 535.751C341.679 534.023 341.354 532.29 341.002 530.549L340.59 528.57L348.897 526.807L349.322 528.868C349.689 530.684 350.029 532.489 350.342 534.285ZM372.86 618.194L371.445 626.573C368.939 626.148 366.437 625.671 363.943 625.142L365.697 616.828C368.078 617.333 370.468 617.787 372.86 618.194ZM387.327 620.068L386.576 628.536C384.043 628.307 381.513 628.029 378.987 627.7L380.079 619.274C382.494 619.587 384.908 619.853 387.327 620.068ZM401.911 620.832L401.789 629.33C399.255 629.293 396.714 629.212 394.175 629.078L394.615 620.592C397.048 620.718 399.48 620.797 401.911 620.832ZM416.511 620.482L417.026 628.966C414.493 629.118 411.957 629.227 409.417 629.29L409.209 620.795C411.645 620.735 414.08 620.63 416.511 620.482ZM431.048 619.055L432.181 627.48C429.665 627.818 427.145 628.112 424.619 628.36L423.789 619.899C426.215 619.662 428.635 619.378 431.048 619.055ZM447.176 624.907C444.698 625.423 442.207 625.895 439.706 626.326L438.262 617.952C440.667 617.536 443.062 617.079 445.448 616.583L447.176 624.907ZM461.948 621.283C459.513 621.971 457.062 622.617 454.599 623.225L452.572 614.967C454.941 614.386 457.3 613.76 459.644 613.101L461.948 621.283ZM476.433 616.627C474.047 617.484 471.648 618.303 469.234 619.078L466.638 610.985C468.961 610.238 471.269 609.451 473.562 608.629L476.433 616.627ZM490.559 610.977C488.238 612.005 485.901 612.989 483.541 613.928L480.394 606.035C482.658 605.128 484.902 604.185 487.129 603.204L490.559 610.977ZM504.258 604.356C502.016 605.541 499.749 606.684 497.463 607.789L493.771 600.133C495.968 599.071 498.141 597.974 500.295 596.839L504.258 604.356ZM517.466 596.743C515.278 598.126 513.098 599.439 510.924 600.688L506.694 593.315C508.766 592.124 510.847 590.871 512.934 589.555L517.466 596.743ZM530.028 588.134C527.963 589.665 525.894 591.137 523.83 592.557L519.03 585.544C521.011 584.186 522.994 582.771 524.977 581.301L530.028 588.134ZM541.928 578.652C539.978 580.315 538.024 581.928 536.065 583.49L530.772 576.844C532.658 575.338 534.542 573.786 536.422 572.185L541.928 578.652ZM553.155 568.422C551.322 570.2 549.477 571.935 547.627 573.622L541.91 567.337C543.697 565.711 545.475 564.035 547.244 562.316L553.155 568.422ZM563.713 557.507C561.996 559.393 560.264 561.24 558.521 563.04L552.421 557.126C554.103 555.385 555.779 553.604 557.436 551.783L563.713 557.507ZM573.586 545.984C571.987 547.967 570.369 549.913 568.734 551.817L562.293 546.283C563.871 544.442 565.435 542.561 566.981 540.642L573.586 545.984ZM582.764 533.911C581.28 535.978 579.78 538.011 578.263 540.01L571.505 534.867C572.972 532.933 574.427 530.962 575.861 528.959L582.764 533.911ZM591.231 521.327C589.871 523.478 588.49 525.595 587.088 527.676L580.044 522.923C581.4 520.911 582.738 518.861 584.054 516.779L591.231 521.327ZM598.969 508.288C597.732 510.509 596.475 512.7 595.19 514.862L587.89 510.521C589.132 508.428 590.353 506.305 591.55 504.152L598.969 508.288ZM605.966 494.842C604.854 497.131 603.718 499.386 602.558 501.615L595.031 497.683C596.154 495.528 597.253 493.341 598.326 491.127L605.966 494.842ZM612.209 481.026C611.224 483.369 610.215 485.687 609.183 487.977L601.446 484.47C602.448 482.254 603.427 480.011 604.378 477.734L612.209 481.026ZM617.684 466.896C616.831 469.291 615.948 471.659 615.042 474L607.125 470.928C608.004 468.659 608.857 466.365 609.684 464.043L617.684 466.896ZM622.389 452.495C621.667 454.929 620.912 457.344 620.134 459.73L612.062 457.087C612.817 454.772 613.549 452.437 614.247 450.073L622.389 452.495ZM626.324 437.867C625.727 440.336 625.103 442.787 624.451 445.207L616.253 442.996C616.887 440.645 617.493 438.273 618.068 435.875L626.324 437.867ZM629.484 423.059C629.017 425.555 628.52 428.031 627.998 430.482L619.696 428.701C620.204 426.319 620.683 423.916 621.137 421.492L629.484 423.059ZM631.878 408.111C631.541 410.628 631.172 413.125 630.777 415.6L622.391 414.25C622.778 411.843 623.136 409.418 623.464 406.969L631.878 408.111ZM633.526 393.061C633.312 395.591 633.07 398.102 632.796 400.597L624.359 399.666C624.622 397.247 624.86 394.806 625.066 392.348L633.526 393.061ZM634.445 377.964C634.35 380.503 634.226 383.019 634.077 385.516L625.6 385.002C625.749 382.566 625.865 380.116 625.957 377.644L634.445 377.964ZM634.638 362.832C634.662 365.375 634.656 367.894 634.625 370.394L626.135 370.282C626.167 367.845 626.169 365.387 626.147 362.914L634.638 362.832ZM634.142 347.73C634.281 350.257 634.389 352.774 634.473 355.276L625.988 355.554C625.908 353.116 625.8 350.663 625.666 348.185L634.142 347.73ZM624.114 280.618L615.858 282.604C615.287 280.224 614.693 277.838 614.068 275.435L622.284 273.3C622.921 275.752 623.53 278.192 624.114 280.618ZM632.986 332.664C633.233 335.191 633.452 337.7 633.646 340.194L625.178 340.842C624.994 338.411 624.778 335.962 624.535 333.499L632.986 332.664ZM627.37 295.351L619.049 297.028C618.564 294.631 618.056 292.226 617.52 289.805L625.81 287.97C626.357 290.443 626.877 292.904 627.37 295.351ZM631.192 317.669C631.541 320.179 631.866 322.674 632.164 325.155L623.734 326.164C623.442 323.74 623.126 321.301 622.782 318.844L631.192 317.669ZM630.064 310.201L621.682 311.553C621.291 309.142 620.878 306.715 620.435 304.276L628.788 302.763C629.243 305.253 629.664 307.733 630.064 310.201Z" fill="#F5D3B7" fill-opacity="0.6"/>
<path d="M599.016 235.288C599.082 235.615 598.938 235.95 598.639 236.135C596.469 237.477 589.267 244.199 589.934 244.741C589.867 245.396 590.578 246.041 590.578 246.041L600.523 242.476C600.523 242.476 601.499 249.634 601.413 252.613C600.728 253.446 598.475 255.171 598.475 255.171L598.569 256.537C598.569 256.537 602.379 256.108 604.231 255.897C606.126 255.85 610.025 255.748 610.025 255.748L609.931 254.382C609.931 254.382 607.391 252.987 606.572 252.258C606.078 249.318 606.063 242.093 606.063 242.093L616.403 244.262C616.403 244.262 617.019 243.526 616.862 242.886C617.45 242.257 609.393 236.586 607.06 235.555C606.737 235.412 606.549 235.101 606.57 234.768C606.934 228.881 606.002 224.637 601.998 223.487C598.19 225.175 597.849 229.507 599.016 235.288Z" fill="#FD7E14"/>
<path d="M1325.74 491.182L1323.7 485.939C1326.02 485.029 1328.37 484.147 1330.75 483.292L1332.65 488.587C1330.32 489.427 1328.02 490.291 1325.74 491.182ZM1312.17 496.936L1309.83 491.817C1312.1 490.781 1314.39 489.765 1316.72 488.782L1318.91 493.967C1316.64 494.928 1314.39 495.921 1312.17 496.936ZM1298.94 503.448L1296.31 498.469C1298.52 497.305 1300.76 496.163 1303.02 495.045L1305.51 500.1C1303.29 501.191 1301.1 502.307 1298.94 503.448ZM1286.1 510.705L1283.19 505.879C1285.33 504.59 1287.5 503.322 1289.7 502.083L1292.46 506.985C1290.31 508.199 1288.19 509.44 1286.1 510.705ZM1273.68 518.669L1270.52 514.019C1272.58 512.61 1274.68 511.224 1276.8 509.862L1279.84 514.6C1277.76 515.934 1275.71 517.29 1273.68 518.669ZM1261.73 527.317L1258.31 522.848C1260.3 521.326 1262.31 519.829 1264.35 518.348L1267.65 522.906C1265.65 524.357 1263.68 525.826 1261.73 527.317ZM1250.27 536.618L1246.61 532.338C1248.51 530.711 1250.44 529.105 1252.39 527.516L1255.94 531.887C1254.02 533.447 1252.13 535.024 1250.27 536.618ZM1239.33 546.519L1235.45 542.442C1237.26 540.718 1239.09 539.01 1240.96 537.32L1244.74 541.492C1242.91 543.151 1241.1 544.827 1239.33 546.519ZM1228.9 556.977L1224.82 553.106C1226.53 551.294 1228.28 549.489 1230.06 547.705L1234.05 551.681C1232.3 553.433 1230.59 555.2 1228.9 556.977ZM1219.02 567.96L1214.75 564.294C1216.37 562.397 1218.03 560.513 1219.71 558.641L1223.89 562.405C1222.24 564.243 1220.61 566.1 1219.02 567.96ZM1209.67 579.413L1205.23 575.957C1206.76 573.988 1208.32 572.026 1209.91 570.071L1214.28 573.631C1212.71 575.549 1211.18 577.477 1209.67 579.413ZM1200.88 591.296L1196.28 588.05C1197.71 586.012 1199.18 583.978 1200.68 581.951L1205.2 585.303C1203.73 587.294 1202.29 589.291 1200.88 591.296ZM1192.61 603.571L1187.88 600.527C1189.22 598.43 1190.6 596.334 1192.01 594.245L1196.68 597.385C1195.29 599.442 1193.94 601.506 1192.61 603.571ZM1184.89 616.195L1180.03 613.356C1181.28 611.206 1182.57 609.056 1183.88 606.901L1188.69 609.839C1187.39 611.96 1186.12 614.08 1184.89 616.195ZM1036.76 646.851L1035.67 641.328C1037.21 641.023 1038.74 640.732 1040.28 640.451L1043.06 639.953L1044.03 645.5L1041.29 645.988C1039.78 646.265 1038.27 646.552 1036.76 646.851ZM1058.66 643.285C1056.22 643.598 1053.78 643.938 1051.33 644.307L1050.49 638.741C1052.98 638.364 1055.47 638.019 1057.95 637.702L1058.66 643.285ZM1022.31 650.031L1020.99 644.563C1023.43 643.969 1025.87 643.403 1028.31 642.864L1029.52 648.362C1027.12 648.892 1024.72 649.449 1022.31 650.031ZM1073.36 641.776C1070.92 641.966 1068.46 642.187 1066 642.439L1065.42 636.84C1067.93 636.583 1070.43 636.357 1072.92 636.164L1073.36 641.776ZM1008.01 653.826L1006.45 648.416C1008.87 647.719 1011.29 647.054 1013.7 646.413L1015.14 651.857C1012.77 652.487 1010.39 653.142 1008.01 653.826ZM993.872 658.205L992.099 652.863C994.48 652.071 996.866 651.306 999.257 650.566L1000.92 655.943C998.568 656.673 996.218 657.425 993.872 658.205ZM1088.1 641.02C1085.66 641.08 1083.2 641.174 1080.73 641.3L1080.44 635.678C1082.96 635.545 1085.47 635.454 1087.97 635.391L1088.1 641.02ZM979.927 663.156L977.938 657.892C980.286 657.004 982.638 656.14 984.996 655.304L986.874 660.61C984.559 661.432 982.239 662.283 979.927 663.156ZM1102.85 641.085C1100.42 641.003 1097.96 640.954 1095.49 640.944L1095.51 635.312C1098.04 635.325 1100.56 635.372 1103.05 635.456L1102.85 641.085ZM1177.7 629.139L1172.73 626.502C1173.88 624.308 1175.08 622.102 1176.31 619.892L1181.23 622.632C1180.02 624.805 1178.84 626.976 1177.7 629.139ZM966.155 668.691L963.95 663.509C966.264 662.525 968.586 661.565 970.912 660.63L973.011 665.854C970.723 666.776 968.433 667.72 966.155 668.691ZM1117.55 642.053C1115.3 641.833 1113.02 641.643 1110.73 641.488L1110.22 641.454L1110.58 635.837L1111.11 635.869C1113.47 636.029 1115.8 636.222 1118.11 636.451L1117.55 642.053ZM952.633 674.773L950.217 669.689C952.488 668.609 954.768 667.558 957.054 666.528L959.362 671.663C957.111 672.677 954.87 673.714 952.633 674.773ZM1132.16 643.967C1129.76 643.571 1127.33 643.215 1124.87 642.892L1125.6 637.312C1128.12 637.639 1130.61 638.007 1133.07 638.411L1132.16 643.967ZM939.381 681.409L936.758 676.43C938.98 675.257 941.214 674.112 943.452 672.99L945.97 678.023C943.764 679.13 941.566 680.258 939.381 681.409ZM1146.6 646.836C1144.23 646.282 1141.83 645.762 1139.4 645.278L1140.5 639.757C1142.99 640.252 1145.45 640.784 1147.88 641.352L1146.6 646.836ZM1171.04 642.362L1165.97 639.931C1167.04 637.694 1168.14 635.444 1169.28 633.181L1174.31 635.716C1173.18 637.944 1172.1 640.16 1171.04 642.362ZM926.435 688.593L923.602 683.729C925.769 682.464 927.951 681.225 930.143 680.009L932.873 684.933C930.712 686.13 928.569 687.35 926.435 688.593ZM1160.81 650.677C1158.49 649.961 1156.13 649.28 1153.74 648.634L1155.21 643.198C1157.66 643.861 1160.09 644.565 1162.47 645.301L1160.81 650.677ZM913.822 696.321L910.777 691.588C912.883 690.229 915.01 688.897 917.146 687.587L920.085 692.387C917.983 693.675 915.897 694.986 913.822 696.321ZM1164.91 655.848L1159.74 653.62C1160.72 651.348 1161.74 649.057 1162.78 646.744L1167.91 649.073C1166.88 651.352 1165.87 653.612 1164.91 655.848ZM901.574 704.607L898.317 700.015C900.361 698.562 902.423 697.135 904.501 695.73L907.651 700.396C905.609 701.775 903.585 703.18 901.574 704.607ZM1174.69 655.528C1172.43 654.643 1170.13 653.792 1167.79 652.974L1169.64 647.661C1172.05 648.499 1174.41 649.376 1176.74 650.285L1174.69 655.528ZM889.746 713.444L886.271 709.018C888.243 707.468 890.236 705.945 892.243 704.445L895.609 708.957C893.632 710.429 891.68 711.928 889.746 713.444ZM1188.15 661.415C1185.97 660.357 1183.75 659.331 1181.48 658.339L1183.73 653.182C1186.07 654.203 1188.36 655.262 1190.6 656.348L1188.15 661.415ZM1159.32 669.568L1154.07 667.544C1154.95 665.245 1155.88 662.914 1156.84 660.553L1162.05 662.679C1161.1 665.006 1160.19 667.303 1159.32 669.568ZM878.36 722.844L874.67 718.592C876.561 716.948 878.476 715.328 880.414 713.733L883.991 718.076C882.092 719.642 880.213 721.233 878.36 722.844ZM1201.06 668.378C1198.99 667.141 1196.86 665.932 1194.68 664.758L1197.35 659.804C1199.6 661.019 1201.8 662.267 1203.94 663.546L1201.06 668.378ZM867.48 732.801L863.572 728.747C865.376 727.008 867.203 725.29 869.057 723.596L872.853 727.752C871.038 729.414 869.246 731.094 867.48 732.801ZM1154.62 683.415L1149.19 681.939C1149.85 679.494 1150.61 677.034 1151.44 674.63L1156.76 676.469C1155.97 678.754 1155.25 681.089 1154.62 683.415ZM1213.25 676.48C1211.32 675.053 1209.32 673.652 1207.26 672.284L1210.37 667.593C1212.51 669.016 1214.59 670.47 1216.59 671.953L1213.25 676.48ZM857.149 743.321L853.027 739.489C854.736 737.649 856.469 735.834 858.229 734.042L862.241 737.99C860.519 739.743 858.821 741.52 857.149 743.321ZM1151.76 697.664L1146.18 696.922C1146.51 694.4 1146.93 691.861 1147.43 689.382L1152.95 690.491C1152.47 692.848 1152.07 695.263 1151.76 697.664ZM847.431 754.4L843.1 750.809C844.696 748.876 846.326 746.965 847.982 745.078L852.212 748.789C850.593 750.638 849.001 752.507 847.431 754.4ZM1224.47 685.79C1222.74 684.171 1220.9 682.553 1219 680.98L1222.59 676.644C1224.57 678.286 1226.5 679.981 1228.32 681.677L1224.47 685.79ZM838.386 766.027L833.844 762.71C835.325 760.68 836.838 758.673 838.38 756.686L842.822 760.145C841.312 762.085 839.834 764.044 838.386 766.027ZM1234.38 696.393C1232.9 694.548 1231.3 692.707 1229.63 690.925L1233.73 687.076C1235.49 688.962 1237.19 690.906 1238.76 692.859L1234.38 696.393ZM1150.83 712.155L1145.21 712.178C1145.19 709.672 1145.27 707.101 1145.43 704.537L1151.05 704.891C1150.89 707.333 1150.82 709.775 1150.83 712.155ZM830.085 778.194L825.342 775.169C826.691 773.045 828.079 770.943 829.498 768.868L834.142 772.048C832.756 774.073 831.402 776.121 830.085 778.194ZM1242.39 708.338C1241.27 706.275 1240.02 704.206 1238.66 702.193L1243.33 699.055C1244.78 701.215 1246.13 703.438 1247.33 705.663L1242.39 708.338ZM1151.91 726.625L1146.35 727.448C1145.98 724.956 1145.7 722.394 1145.51 719.831L1151.12 719.416C1151.3 721.841 1151.56 724.266 1151.91 726.625ZM822.58 790.871L817.649 788.169C818.858 785.957 820.105 783.763 821.392 781.597L826.229 784.475C824.972 786.585 823.759 788.718 822.58 790.871ZM1247.58 721.514C1247.03 719.296 1246.3 717.036 1245.41 714.789L1250.63 712.709C1251.62 715.189 1252.43 717.696 1253.04 720.16L1247.58 721.514ZM1149.77 742.414C1149 739.992 1148.32 737.493 1147.76 734.986L1153.25 733.744C1153.78 736.099 1154.41 738.444 1155.13 740.716L1149.77 742.414ZM815.946 804.033L810.841 801.672C811.898 799.376 812.992 797.109 814.13 794.856L819.153 797.398C818.045 799.588 816.979 801.799 815.946 804.033ZM1254.36 735.88L1248.76 735.384C1248.96 733.115 1248.95 730.776 1248.75 728.429L1254.35 727.938C1254.59 730.611 1254.59 733.284 1254.36 735.88ZM810.236 817.627L804.974 815.635C805.871 813.267 806.81 810.92 807.786 808.598L812.972 810.779C812.023 813.042 811.11 815.324 810.236 817.627ZM1155.73 756.643C1154.54 754.421 1153.42 752.07 1152.41 749.657L1157.6 747.49C1158.54 749.729 1159.57 751.911 1160.69 753.968L1155.73 756.643ZM1250.1 751.151L1245.05 748.672C1246.07 746.576 1246.91 744.394 1247.52 742.195L1252.94 743.714C1252.23 746.241 1251.27 748.745 1250.1 751.151ZM1164.66 769.385C1162.96 767.516 1161.33 765.456 1159.8 763.269L1164.42 760.047C1165.8 762.041 1167.29 763.906 1168.82 765.599L1164.66 769.385ZM1240.98 763.962L1236.93 760.045C1238.6 758.318 1240.12 756.504 1241.45 754.651L1246.02 757.937C1244.53 760.007 1242.83 762.035 1240.98 763.962ZM1176.93 779.271C1174.67 778.004 1172.46 776.504 1170.37 774.804L1173.92 770.433C1175.76 771.93 1177.69 773.249 1179.67 774.352L1176.93 779.271ZM1228.98 773.769L1225.88 769.08C1226.84 768.436 1227.81 767.768 1228.78 767.063C1229.79 766.334 1230.76 765.593 1231.68 764.845L1235.22 769.22C1234.22 770.034 1233.17 770.836 1232.08 771.625C1231.05 772.374 1230.01 773.088 1228.98 773.769ZM1192.01 784.248C1189.36 783.917 1186.74 783.323 1184.21 782.486L1185.99 777.142C1188.16 777.867 1190.42 778.377 1192.71 778.661L1192.01 784.248ZM1215.29 780.987L1213.24 775.739C1215.38 774.905 1217.56 773.905 1219.71 772.763L1222.35 777.729C1220.01 778.976 1217.63 780.073 1215.29 780.987ZM1205.45 783.811C1203.63 784.144 1201.78 784.371 1199.97 784.484L1199.61 778.868C1201.89 778.72 1204.19 778.387 1206.52 777.834L1207.79 783.321C1207.01 783.503 1206.23 783.668 1205.45 783.811Z" fill="#F5D3B7"/>
<path d="M584.506 193.456L588.991 192.081C589.589 194.024 590.2 195.966 590.826 197.901L586.363 199.345C585.728 197.387 585.109 195.423 584.506 193.456ZM581.058 181.601L585.582 180.356C586.122 182.318 586.677 184.274 587.244 186.231L582.737 187.538C582.166 185.561 581.605 183.582 581.058 181.601ZM577.962 169.656L582.522 168.547C583.003 170.519 583.498 172.492 584.009 174.465L579.469 175.641C578.951 173.649 578.447 171.653 577.962 169.656ZM575.213 157.622L579.806 156.647C580.23 158.636 580.666 160.621 581.121 162.602L576.548 163.65C576.091 161.644 575.643 159.634 575.213 157.622ZM572.815 145.523L577.432 144.677C577.797 146.677 578.178 148.674 578.573 150.673L573.971 151.583C573.57 149.563 573.186 147.544 572.815 145.523ZM570.762 133.354L575.401 132.642C575.708 134.649 576.034 136.654 576.37 138.662L571.747 139.445C571.403 137.418 571.073 135.386 570.762 133.354ZM569.054 121.142L573.709 120.556C573.963 122.575 574.229 124.592 574.511 126.606L569.861 127.252C569.582 125.215 569.31 123.177 569.054 121.142ZM567.692 108.883L572.365 108.428C572.562 110.452 572.771 112.476 572.997 114.501L568.332 115.017C568.109 112.97 567.893 110.927 567.692 108.883ZM566.674 96.5896L571.353 96.2692C571.495 98.2954 571.647 100.321 571.818 102.348L567.14 102.741C566.97 100.69 566.815 98.6391 566.674 96.5896ZM565.996 84.2837L570.687 84.0886C570.769 86.1207 570.868 88.1499 570.979 90.1831L566.294 90.4379C566.181 88.386 566.081 86.3322 565.996 84.2837ZM565.663 71.9561L570.358 71.8942C570.383 73.9275 570.427 75.9593 570.481 77.9939L565.788 78.1165C565.733 76.0668 565.692 74.0095 565.663 71.9561Z" fill="#F5D3B7"/>
<g clip-path="url(#clip1_908_312)">
<path d="M417.889 530.165C417.626 485.939 350.268 486.039 350.129 530.257C350.129 530.254 346.694 565.678 384.092 593.697C421.417 565.58 417.889 530.165 417.889 530.165Z" fill="#F85C3D"/>
<path d="M395.684 527.396C395.424 543.84 370.92 543.869 370.619 527.429C370.879 510.986 395.385 510.957 395.684 527.396Z" fill="#38385C"/>
</g>
<path d="M104.831 604.03C106.046 607.466 53.1246 607.535 54.3346 604.096C53.1194 600.661 106.041 600.591 104.831 604.03Z" fill="white"/>
<path d="M305.586 455.984C303.112 452.415 298.702 450.727 294.471 451.727L221.45 466.459L193.521 486.645L197.54 493.74L199.773 540.766L163.716 566.515L169.504 577.313C230.431 561.099 223.803 575.156 237.138 511.324L291.858 485.006L335.726 535.788L351.599 522.38L305.586 455.984Z" fill="black"/>
<path d="M192.813 498.936C192.813 498.936 201.274 468.033 240.055 462.837C240.055 462.837 207.316 478.294 192.813 498.936Z" fill="#19191F"/>
<path d="M199.773 540.765L206.004 480.9L197.343 492.462L199.773 540.765Z" fill="#19191F"/>
<path d="M297.415 479.56C292.4 472.994 286.305 476.592 281.156 480.68C269.412 488.888 253.918 490.126 241.074 483.804L237.138 511.323L291.858 485.005L335.726 535.787L297.415 479.56Z" fill="#19191F"/>
<path d="M340.107 529.93L345.979 499.019C346.977 493.396 351.534 489.092 357.008 487.765C350.278 483.164 341.085 490.733 340.025 497.723L334.156 528.632C332.904 535.123 338.309 541.062 344.903 540.409C341.405 538.373 339.281 534.282 340.107 529.93Z" fill="#19191F"/>
<path d="M353.344 533.937C356.864 521.169 371.918 499.037 357.397 488.069C357.27 487.962 357.142 487.862 357.008 487.765C351.534 489.095 346.977 493.397 345.978 499.019L340.107 529.93C339.281 534.282 341.405 538.373 344.903 540.409C348.72 540.052 352.012 537.548 353.344 533.937Z" fill="black"/>
<path d="M335.726 535.787C335.726 535.787 333.261 533.34 334.156 528.632C335.05 523.926 338.839 503.966 338.839 503.966L325.755 524.245L335.726 535.787Z" fill="#19191F"/>
<path d="M161.591 568.316C157.51 568.688 152.004 574.649 152.004 574.649C147.846 578.277 141.174 589.458 143.296 595.761C143.711 598.094 145.924 599.664 148.271 599.311C158.236 597.252 162.145 583.876 165.313 577.122C166.179 574.697 164.781 567.929 161.591 568.316Z" fill="#19191F"/>
<mask id="mask0_908_312" style="mask-type:luminance" maskUnits="userSpaceOnUse" x="142" y="568" width="24" height="32">
<path d="M161.591 568.316C157.51 568.688 152.004 574.649 152.004 574.649C147.846 578.277 141.174 589.458 143.296 595.761C143.711 598.094 145.924 599.664 148.271 599.311C158.236 597.254 162.145 583.876 165.313 577.122C166.179 574.697 164.781 567.929 161.591 568.316Z" fill="white"/>
</mask>
<g mask="url(#mask0_908_312)">
<path d="M142.049 593.701C142.383 593.7 148.627 594.855 151.054 593.558C153.483 592.261 164.393 575.596 164.393 575.596L166.582 576.725C163.548 588.922 161.307 602.258 143.023 600.681L142.049 593.701Z" fill="black"/>
</g>
<path d="M164.092 567.213L159.604 570.114C152.648 574.883 159.767 586.943 165.615 576.541L168.633 575.687L164.092 567.213Z" fill="#FFB6A6"/>
<path d="M169.833 378.641L155.026 385.613L170.761 417.821L181.77 410.492L178.391 403.035C181.759 400.792 186.553 398.138 183.07 393.571L169.833 378.641Z" fill="#FFB6A6"/>
<mask id="mask1_908_312" style="mask-type:luminance" maskUnits="userSpaceOnUse" x="155" y="378" width="30" height="40">
<path d="M169.833 378.641L155.026 385.613L170.761 417.821L181.77 410.492L178.391 403.035C181.759 400.792 186.553 398.138 183.07 393.571L169.833 378.641Z" fill="white"/>
</mask>
<g mask="url(#mask1_908_312)">
<path d="M160.573 387.373C160.573 387.373 167.071 391.056 178.255 387.171L172.447 380.383L160.573 387.373Z" fill="#FF8370"/>
<path d="M179.97 393.566C179.97 393.566 173.761 394.735 171.88 395.265C169.998 395.798 178.815 396.21 179.97 393.566Z" fill="white"/>
<path d="M177.693 409.291L167.02 401.546C167.02 401.546 175.609 400.643 178.92 400.501C182.235 400.361 184.215 394.59 184.215 394.59C188.589 397.914 180.391 402.411 179.336 403.247L181.223 408.257L177.693 409.291Z" fill="#FF8370"/>
</g>
<path d="M160.572 387.373C160.572 387.373 167.024 386.703 173.51 384.733L166.664 384.437C166.664 384.437 176.492 383.979 181.187 380.479C181.187 380.479 171.36 371.365 161.382 376.328C151.402 381.291 152.549 385.207 152.549 385.207C145.051 391.754 161.596 402.928 163.798 403.57C166.347 399.066 167.125 397.888 163.94 393.154C160.146 396.344 155.774 387.696 162.353 389.807L160.572 387.373Z" fill="#38385C"/>
<path d="M154.8 397.078C154.8 397.078 155.556 390.36 163.624 379.719L172.475 373.487C175.27 371.502 175.313 367.865 173.882 365.029C173.65 364.399 172.883 364.162 172.335 364.556L163.763 370.704C147.485 370.145 141.289 388.041 154.8 397.078Z" fill="#E96C0F"/>
<mask id="mask2_908_312" style="mask-type:luminance" maskUnits="userSpaceOnUse" x="146" y="364" width="28" height="34">
<path d="M153.756 397.345C153.756 397.345 154.512 390.626 162.581 379.985L171.432 373.753C174.227 371.768 174.27 368.131 172.839 365.295C172.607 364.665 171.839 364.429 171.292 364.822L162.719 370.97C146.441 370.411 140.246 388.307 153.756 397.345Z" fill="white"/>
</mask>
<g mask="url(#mask2_908_312)">
<path d="M163.763 370.704C163.763 370.704 167.035 374.758 163.624 379.72C163.624 379.72 163.332 371.228 159.259 370.867C159.259 370.867 162.256 370.328 163.763 370.704Z" fill="#ED8537"/>
</g>
<path d="M150.599 378.569C149.189 380.873 147.548 379.857 148.994 377.574C150.404 375.27 152.044 376.286 150.599 378.569Z" fill="#DF4930"/>
<path d="M166.324 415.546C189.825 380.841 235.273 458.676 240.056 462.837C240.056 462.837 205.243 466.712 192.813 498.936L175.456 454.737C175.456 454.737 163.532 425.228 166.324 415.546Z" fill="#E96C0F"/>
<path d="M166.323 415.546L165.067 411.609C165.067 411.609 171.281 404.146 182.218 404.041L183.344 406.423C183.344 406.423 168.811 410.343 166.323 415.546Z" fill="#38385C"/>
<path d="M166.323 415.546L150.848 437.954C148.836 440.866 149.427 444.838 152.201 447.041L161.881 454.728C165.537 457.633 170.869 456.984 173.719 453.286L188.049 434.699L166.323 415.546Z" fill="#E96C0F"/>
<mask id="mask3_908_312" style="mask-type:luminance" maskUnits="userSpaceOnUse" x="149" y="415" width="40" height="42">
<path d="M166.323 415.546L150.848 437.954C148.836 440.868 149.427 444.838 152.201 447.041L161.881 454.728C165.537 457.633 170.869 456.984 173.719 453.286L188.049 434.699L166.323 415.546Z" fill="white"/>
</mask>
<g mask="url(#mask3_908_312)">
<path d="M149.034 438.991C154.275 431.113 178.892 443.84 180.64 445.03L167.693 458.61C167.693 458.61 154.976 458.85 152.398 456.563C149.819 454.278 147.86 442.951 149.034 438.991Z" fill="#ED8537"/>
</g>
<path d="M174.654 452.685L188.048 434.699C188.048 434.699 187.113 475.416 198.519 487.975C198.519 487.975 194.199 495.219 192.812 498.936L174.654 452.685Z" fill="#E96C0F"/>
<path d="M289.03 452.191L223.656 458.537L185.091 452.327L184.998 381.326L223.545 373.902L288.937 381.19L289.03 452.191Z" fill="#EECD76"/>
<mask id="mask4_908_312" style="mask-type:luminance" maskUnits="userSpaceOnUse" x="184" y="373" width="106" height="86">
<path d="M289.03 452.191L223.656 458.537L185.091 452.327L184.998 381.326L223.545 373.902L288.937 381.19L289.03 452.191Z" fill="white"/>
</mask>
<g mask="url(#mask4_908_312)">
<path d="M252.395 377.117L251.951 423.773L262.069 422.528L262.504 378.52L252.395 377.117Z" fill="white"/>
</g>
<path d="M223.656 458.537L185.091 452.327L184.998 381.326L223.545 373.902L223.656 458.537Z" fill="#EDA26A"/>
<path d="M235.621 446.532C234.274 446.094 223.845 450.327 220.3 446.771C228.438 436.416 220.393 441.357 214.807 446.336L161.448 438.578C157.401 437.988 153.393 439.866 151.262 443.348C146.371 451.059 154.046 460.345 162.35 459.999L209.774 456.921L209.764 456.944C209.764 456.944 225.703 460.123 229.397 458.959C233.091 457.799 236.373 447.24 235.621 446.532Z" fill="#FFB6A6"/>
<mask id="mask5_908_312" style="mask-type:luminance" maskUnits="userSpaceOnUse" x="149" y="438" width="87" height="23">
<path d="M235.619 446.532C235.116 446.369 233.336 446.859 231.123 447.352C227.426 448.172 222.519 448.995 220.3 446.771C228.438 436.416 220.393 441.357 214.807 446.336L161.448 438.578C157.401 437.988 153.393 439.866 151.262 443.348C146.371 451.059 154.046 460.345 162.35 459.999L209.774 456.921L209.764 456.944C209.764 456.944 225.703 460.123 229.397 458.959C233.091 457.799 236.373 447.24 235.619 446.532Z" fill="white"/>
</mask>
<g mask="url(#mask5_908_312)">
<path d="M149.967 443.786C149.967 443.786 155.655 453.053 167.203 453.971C178.752 454.888 209.774 456.921 209.774 456.921C204.207 456.458 151.545 471.643 147.251 455.184C147.246 451.537 149.967 443.786 149.967 443.786Z" fill="#E96C0F"/>
</g>
</g>
<defs>
<linearGradient id="paint0_linear_908_312" x1="669" y1="0" x2="669" y2="814" gradientUnits="userSpaceOnUse">
<stop stop-color="#FFF7E7"/>
<stop offset="1" stop-color="#FFF1DC"/>
</linearGradient>
<clipPath id="clip0_908_312">
<rect width="1338" height="814" fill="white"/>
</clipPath>
<clipPath id="clip1_908_312">
<rect width="287" height="191" fill="white" transform="translate(131 497)"/>
</clipPath>
</defs>
</svg>
